<svg width="32" height="32" viewBox="0 0 32 32" fill="none" xmlns="http://www.w3.org/2000/svg">
<path d="M18.1429 3.14286C18.1429 1.9596 19.1004 1 20.2857 1H28.7969C29.1451 1 29.4263 1.05759 29.6741 1.16272C29.8683 1.26652 30.1629 1.41987 30.3705 1.62277C30.3705 1.62612 30.3705 1.62946 30.3772 1.63214C30.7924 2.04866 30.9397 2.59241 31 3.13616C31 3.13884 31 3.14085 31 3.14286V11.7143C31 12.8996 30.0424 13.8571 28.8571 13.8571C27.6719 13.8571 26.7143 12.8996 26.7143 11.7143V8.3192L15.3705 19.6562C14.5335 20.4933 13.1808 20.4933 12.3437 19.6562C11.5067 18.8192 11.5067 17.4665 12.3437 16.6295L23.6808 5.28571H20.2857C19.1004 5.28571 18.1429 4.32612 18.1429 3.14286ZM1 7.42857C1 5.06138 2.91853 3.14286 5.28571 3.14286H11.7143C12.8996 3.14286 13.8571 4.10246 13.8571 5.28571C13.8571 6.47098 12.8996 7.42857 11.7143 7.42857H5.28571V26.7143H24.5714V20.2857C24.5714 19.1004 25.529 18.1429 26.7143 18.1429C27.8996 18.1429 28.8571 19.1004 28.8571 20.2857V26.7143C28.8571 29.0781 26.9353 31 24.5714 31H5.28571C2.91853 31 1 29.0781 1 26.7143V7.42857Z" fill="#C4D4E3"/>
</svg>
