<svg width="32" height="32" viewBox="0 0 32 32" fill="none" xmlns="http://www.w3.org/2000/svg">
<path d="M24.6875 1C26.2402 1 27.5 2.25918 27.5 3.8125V28.1875C27.5 29.7402 26.2402 31 24.6875 31H19.0625V26.3125C19.0625 24.7598 17.8027 23.5 16.25 23.5C14.6973 23.5 13.4375 24.7598 13.4375 26.3125V31H7.8125C6.25918 31 5 29.7402 5 28.1875V3.8125C5 2.25918 6.25918 1 7.8125 1H24.6875ZM8.75 16.9375C8.75 17.4531 9.16953 17.875 9.6875 17.875H11.5625C12.0781 17.875 12.5 17.4531 12.5 16.9375V15.0625C12.5 14.5469 12.0781 14.125 11.5625 14.125H9.6875C9.16953 14.125 8.75 14.5469 8.75 15.0625V16.9375ZM15.3125 14.125C14.7969 14.125 14.375 14.5469 14.375 15.0625V16.9375C14.375 17.4531 14.7969 17.875 15.3125 17.875H17.1875C17.7031 17.875 18.125 17.4531 18.125 16.9375V15.0625C18.125 14.5469 17.7031 14.125 17.1875 14.125H15.3125ZM20 16.9375C20 17.4531 20.4219 17.875 20.9375 17.875H22.8125C23.3281 17.875 23.75 17.4531 23.75 16.9375V15.0625C23.75 14.5469 23.3281 14.125 22.8125 14.125H20.9375C20.4219 14.125 20 14.5469 20 15.0625V16.9375ZM9.6875 6.625C9.16953 6.625 8.75 7.04687 8.75 7.5625V9.4375C8.75 9.95313 9.16953 10.375 9.6875 10.375H11.5625C12.0781 10.375 12.5 9.95313 12.5 9.4375V7.5625C12.5 7.04687 12.0781 6.625 11.5625 6.625H9.6875ZM14.375 9.4375C14.375 9.95313 14.7969 10.375 15.3125 10.375H17.1875C17.7031 10.375 18.125 9.95313 18.125 9.4375V7.5625C18.125 7.04687 17.7031 6.625 17.1875 6.625H15.3125C14.7969 6.625 14.375 7.04687 14.375 7.5625V9.4375ZM20.9375 6.625C20.4219 6.625 20 7.04687 20 7.5625V9.4375C20 9.95313 20.4219 10.375 20.9375 10.375H22.8125C23.3281 10.375 23.75 9.95313 23.75 9.4375V7.5625C23.75 7.04687 23.3281 6.625 22.8125 6.625H20.9375Z" fill="#C4D4E3"/>
</svg>
