<svg width="32" height="32" viewBox="0 0 32 32" fill="none" xmlns="http://www.w3.org/2000/svg">
<path d="M12.375 2.875V4.75H19.875V2.875C19.875 1.83965 20.7129 1 21.75 1C22.7871 1 23.625 1.83965 23.625 2.875V4.75H26.4375C27.9902 4.75 29.25 6.00918 29.25 7.5625V10.375H3V7.5625C3 6.00918 4.25918 4.75 5.8125 4.75H8.625V2.875C8.625 1.83965 9.46289 1 10.5 1C11.5371 1 12.375 1.83965 12.375 2.875ZM3 12.25H29.25V28.1875C29.25 29.7402 27.9902 31 26.4375 31H5.8125C4.25918 31 3 29.7402 3 28.1875V12.25ZM7.6875 16C7.16953 16 6.75 16.4219 6.75 16.9375V22.5625C6.75 23.0781 7.16953 23.5 7.6875 23.5H13.3125C13.8281 23.5 14.25 23.0781 14.25 22.5625V16.9375C14.25 16.4219 13.8281 16 13.3125 16H7.6875Z" fill="#C4D4E3"/>
</svg>
