<svg width="32" height="32" viewBox="0 0 32 32" fill="none" xmlns="http://www.w3.org/2000/svg">
<path d="M11.5 16C14.8141 16 17.5 13.3136 17.5 10C17.5 6.68641 14.8141 4 11.5 4C8.18594 4 5.5 6.68641 5.5 10C5.5 13.3136 8.18594 16 11.5 16ZM13.8766 18.25H9.12344C4.63609 18.25 1 21.8875 1 26.3734C1 27.2734 1.7275 28 2.62469 28H20.3734C21.2734 28 22 27.2734 22 26.3734C22 21.8875 18.3625 18.25 13.8766 18.25ZM23.4578 19H19.9961C22.15 20.7672 23.5 23.4109 23.5 26.3734C23.5 26.9734 23.3219 27.5266 23.0312 28H29.5C30.3297 28 31 27.325 31 26.4578C31 22.3563 27.6438 19 23.4578 19ZM21.25 16C24.1516 16 26.5 13.6516 26.5 10.75C26.5 7.84844 24.1516 5.5 21.25 5.5C20.073 5.5 18.9981 5.90102 18.1225 6.55516C18.6625 7.59203 19 8.75312 19 10C19 11.665 18.4408 13.1941 17.5192 14.4395C18.4703 15.4 19.7875 16 21.25 16Z" fill="#C4D4E3"/>
</svg>
